Jump_normalized_Motion_pl10
version=1
nRows=10
nColumns=43
inDegrees=yes
endheader
time		pelvis_tilt		pelvis_list		pelvis_rotation		pelvis_tx		pelvis_ty		pelvis_tz		hip_flexion_r		hip_adduction_r		hip_rotation_r		knee_angle_r		ankle_angle_r		subtalar_angle_r		mtp_angle_r		hip_flexion_l		hip_adduction_l		hip_rotation_l		knee_angle_l		ankle_angle_l		subtalar_angle_l		mtp_angle_l		lumbar_extension		lumbar_bending		lumbar_rotation		neck_flexion		neck_lateral_bending		neck_rotation		arm_flex_r		arm_add_r		arm_rot_r		elbow_flex_r		pro_sup_r		wrist_flex_r		wrist_dev_r		hand_finger_flex_r		arm_flex_l		arm_add_l		arm_rot_l		elbow_flex_l		pro_sup_l		wrist_flex_l		wrist_dev_l		hand_finger_flex_l		
0.261667		4.401542		-17.380240		92.750136		-0.034654		1.646676		1.536738		79.313081		-7.720709		7.072870		-137.406948		6.190576		5.624750		9.832581		67.022531		-5.240520		6.866212		-138.589087		31.178396		6.031078		12.215001		-39.091530		-0.334847		2.774784		25.670935		11.447038		-5.086699		89.704235		-27.521577		21.179623		70.143866		98.228035		4.179120		3.055916		-15.579188		106.648525		-12.419847		32.830055		58.528415		97.780826		-6.739547		-0.764718		-16.497536		
0.264722		4.503978		-17.358053		92.867594		-0.034790		1.647649		1.532465		79.060310		-7.598140		6.911839		-137.156229		4.843054		5.088195		9.813109		66.385463		-5.276032		6.976896		-138.368797		31.010539		6.034699		12.451751		-38.826860		-0.239278		2.751300		25.352166		11.567382		-5.079218		90.019219		-27.658414		21.504290		70.191012		98.268561		4.211942		3.016188		-15.735812		107.076399		-12.253331		33.152847		58.345597		97.785871		-6.728104		-0.947803		-16.504376		
0.267778		4.597105		-17.323151		92.974439		-0.034933		1.648632		1.528136		78.810169		-7.475544		6.763186		-136.867663		3.386232		4.521672		9.757453		65.727873		-5.313005		7.074430		-138.140600		30.832135		6.034602		12.689123		-38.568621		-0.150477		2.710145		25.031508		11.661222		-5.052830		90.335737		-27.761528		21.845928		70.182113		98.371704		4.199814		2.957187		-15.915863		107.481301		-12.089479		33.436542		58.143869		97.832562		-6.706472		-1.128237		-16.502947		
0.270833		4.689768		-17.247712		93.071586		-0.035093		1.649697		1.523688		78.527849		-7.353226		6.595737		-136.561018		1.786535		3.850164		9.672719		65.019322		-5.358594		7.169961		-137.884053		30.630700		6.037201		12.957528		-38.347718		-0.040993		2.677315		24.659756		11.748957		-5.003475		90.658747		-27.831805		22.208037		70.175879		98.529233		4.157480		2.860764		-16.131787		107.839378		-11.959268		33.706584		57.968440		97.936190		-6.674075		-1.361701		-16.497257		
0.273889		4.817230		-17.113587		93.171581		-0.035160		1.650931		1.519250		78.170146		-7.195292		6.302773		-136.171261		0.088571		2.775088		9.594073		64.259563		-5.445536		7.294844		-137.625698		30.428491		6.041370		13.408580		-38.210089		0.094477		2.633939		24.392630		11.767774		-4.883964		91.036339		-27.812508		22.568449		70.032238		98.764717		4.059938		2.707486		-16.478965		108.223083		-11.832652		33.895569		57.710731		98.138353		-6.676429		-1.726028		-16.503478		
0.276944		4.980569		-16.983803		93.288103		-0.035221		1.652087		1.514692		77.815928		-7.040732		5.996422		-135.758930		-1.619699		1.922754		9.555057		63.506411		-5.558005		7.479434		-137.373683		30.182767		6.078654		13.957297		-38.037770		0.271753		2.597229		24.031761		11.795599		-4.768476		91.368622		-27.785825		22.905869		69.911305		98.996541		4.051108		2.590891		-16.835534		108.525968		-11.735549		34.054866		57.504499		98.398367		-6.652318		-2.058886		-16.486477		
0.280000		5.091790		-16.949097		93.388548		-0.035370		1.653003		1.509932		77.554469		-6.934986		5.821048		-135.354592		-3.012197		1.731836		9.496131		62.816022		-5.615240		7.587833		-137.119972		29.915146		6.136485		14.219096		-37.735236		0.406166		2.544677		23.484633		11.903606		-4.723760		91.559506		-27.862475		23.164254		70.013271		99.126033		4.123959		2.567258		-16.984036		108.682184		-11.735719		34.221087		57.553799		98.585568		-6.587462		-2.265703		-16.449546		
0.283056		5.225269		-16.853148		93.498859		-0.035382		1.653990		1.505294		77.292254		-6.789603		5.611419		-134.883140		-4.761449		1.488987		9.403860		62.116409		-5.732894		7.720559		-136.890848		29.621986		6.187610		14.466629		-37.497028		0.551126		2.459053		23.032044		11.955813		-4.570721		91.833447		-27.795547		23.432287		69.893224		99.283106		4.147399		2.635054		-17.155139		108.906444		-11.640441		34.318360		57.365904		98.834416		-6.589033		-2.508690		-16.429467		
0.286111		5.330396		-16.829826		93.571896		-0.035427		1.654872		1.500660		77.076452		-6.673631		5.364709		-134.400409		-5.889304		1.241677		9.365393		61.465582		-5.799586		7.813585		-136.633457		29.395838		6.233559		14.667603		-37.210987		0.674607		2.392841		22.679292		11.979310		-4.446578		92.076844		-27.749825		23.615264		69.900783		99.385064		4.175721		2.651921		-17.289305		109.077173		-11.611798		34.370436		57.305181		99.050605		-6.598496		-2.769131		-16.403642		
0.289167		5.645646		-16.551735		93.731575		-0.035401		1.656165		1.495890		76.563517		-6.485277		4.759833		-133.803713		-7.503513		0.341118		9.680198		60.610586		-6.071622		8.132304		-136.408736		29.100381		6.292870		15.420787		-37.186419		1.039127		2.397287		22.242347		11.847266		-4.151200		92.490229		-27.643055		23.979941		69.745547		99.545838		4.271955		2.654997		-17.751947		109.218562		-11.639101		34.337250		57.077079		99.795401		-6.699177		-3.600448		-16.216214		
